<svg preserveAspectRatio="none" width="100%" height="100%" overflow="visible" style="display: block;" viewBox="0 0 20 20" fill="none" xmlns="http://www.w3.org/2000/svg">
<g id="Group">
<path id="Vector" d="M1.72265 3.5682C0.937147 4.59019 0.344842 5.76812 -4.06983e-05 7.04777H5.20222L1.72265 3.5682Z" fill="var(--fill-0, #0052B4)"/>
<path id="Vector_2" d="M19.311 7.04773C18.9662 5.76812 18.3738 4.59019 17.5883 3.5682L14.1088 7.04773H19.311Z" fill="var(--fill-0, #0052B4)"/>
<path id="Vector_3" d="M-4.06983e-05 12.2645C0.344881 13.5441 0.937186 14.722 1.72265 15.744L5.20211 12.2645H-4.06983e-05Z" fill="var(--fill-0, #0052B4)"/>
<path id="Vector_4" d="M15.7437 1.72322C14.7217 0.937715 13.5438 0.34541 12.2642 0.000488273V5.20271L15.7437 1.72322Z" fill="var(--fill-0, #0052B4)"/>
<path id="Vector_5" d="M3.56726 17.5888C4.58925 18.3743 5.76718 18.9666 7.04679 19.3116V14.1094L3.56726 17.5888Z" fill="var(--fill-0, #0052B4)"/>
<path id="Vector_6" d="M7.04675 0.000488273C5.76714 0.34541 4.58921 0.937715 3.56726 1.72318L7.04675 5.20268V0.000488273Z" fill="var(--fill-0, #0052B4)"/>
<path id="Vector_7" d="M12.2642 19.3116C13.5438 18.9666 14.7217 18.3743 15.7437 17.5889L12.2642 14.1094V19.3116Z" fill="var(--fill-0, #0052B4)"/>
<path id="Vector_8" d="M14.1088 12.2645L17.5883 15.744C18.3738 14.7221 18.9662 13.5441 19.311 12.2645H14.1088Z" fill="var(--fill-0, #0052B4)"/>
</g>
</svg>
