<svg preserveAspectRatio="none" width="100%" height="100%" overflow="visible" style="display: block;" viewBox="0 0 153 24" fill="none" xmlns="http://www.w3.org/2000/svg">
<g id="logo 4">
<g id="Logo Container">
<path id="Vector" d="M56.9912 18.2343C56.9912 17.1893 57.6182 16.5463 57.6182 16.4659C57.6182 15.8925 57.661 15.6621 58.2023 15.2494C58.2023 14.4081 59.0061 13.3631 59.7939 12.913C60.7531 12.361 63.9416 12.3074 65.6457 10.6408C67.039 9.28503 67.8 8.25077 68.8717 7.09862C71.6208 4.14592 72.5908 3.4707 74.1931 2.60793C76.5295 1.3486 80.0878 0.560845 85.2752 0.560845C88.2547 0.560845 90.8752 0.523333 93.0509 0.566204C92.0756 2.06668 91.3307 3.35817 88.7209 7.06111C85.5163 11.6108 83.7265 14.4242 80.554 15.0029C83.7265 16.5784 84.9912 17.184 87.0061 17.5752C88.3887 17.8431 90.7627 18.2611 94.9586 17.3608C86.1433 22.0498 75.8222 21.7336 69.9167 19.8527C66.8032 18.8559 65.4528 18.2825 63.0735 17.4144C60.737 16.5624 57.8164 16.8839 56.9912 18.2343Z" fill="var(--fill-0, #164B7D)"/>
<g id="Logo Text Container">
<path id="Vector_2" d="M0.0263405 23.1103L1.2428 20.9936L7.76452 9.8793H1.54825C1.54825 9.8793 2.39495 7.9126 3.86863 7.9126H12.1427L11.0656 9.73997L4.49026 21.149H8.7827C10.0849 21.149 10.6369 23.1103 10.6369 23.1103H0.0263405Z" fill="var(--fill-0, #164B7D)"/>
<path id="Vector_3" d="M28.498 9.76676C28.498 8.30379 30.8345 7.9126 30.8345 7.9126V18.8339C30.8345 19.7985 30.7488 20.5381 30.5826 21.0525C30.3576 21.7331 29.9449 22.2743 29.3447 22.687C28.7499 23.0996 27.9622 23.3032 26.9815 23.3032C25.8347 23.3032 24.9505 22.9817 24.3342 22.3386C23.7179 21.6956 23.4018 20.7524 23.4018 19.5092L25.615 19.2519C25.6418 19.9164 25.7382 20.388 25.9097 20.6613C26.1616 21.0847 26.5474 21.2883 27.0672 21.2883C27.5924 21.2883 27.9622 21.1382 28.1765 20.8435C28.3909 20.5434 28.5034 19.9218 28.5034 18.9786V9.76676H28.498Z" fill="var(--fill-0, #164B7D)"/>
<path id="Vector_4" d="M32.5655 23.1044V7.90674H41.1825C41.1825 7.90674 40.5502 9.87344 39.3283 9.87344H34.9126V14.3374H38.4227V16.2987H34.9126V21.1377H39.0818C40.6788 21.1377 41.4022 23.0991 41.4022 23.0991H32.5655V23.1044Z" fill="var(--fill-0, #164B7D)"/>
<path id="Vector_5" d="M42.7044 23.1098V9.76626C42.7044 8.29258 45.0516 7.90674 45.0516 7.90674V21.1485H49.0278C50.1907 21.1485 50.8873 23.1098 50.8873 23.1098H42.7044Z" fill="var(--fill-0, #164B7D)"/>
<path id="Vector_6" d="M15.8457 18.5012L17.4159 10.838L19.0182 18.5012H15.8457ZM18.6109 7.90674H16.3923L11.6015 23.1044H14.8919L15.4438 20.4572H19.4147L19.9613 23.1044H23.257L18.6109 7.90674Z" fill="var(--fill-0, #164B7D)"/>
</g>
</g>
<path id="Vector_7" d="M141.238 9.78282V23.1103H143.585V7.9233C143.579 7.9233 141.238 8.30914 141.238 9.78282ZM149.592 11.8353V13.4429C149.823 12.8159 151.934 12.4247 151.934 12.4247V10.8171C151.929 10.8171 149.592 11.0957 149.592 11.8353ZM149.581 14.9112V19.402C149.581 21.5884 148.22 21.3258 147.39 21.3258C146.564 21.3258 145.707 23.4693 145.707 23.4693C145.707 23.4693 151.929 24.3267 151.929 20.5863V13.4108C151.929 13.4108 149.581 13.7859 149.581 14.9112ZM133.462 20.8167V22.2636H135.6V20.1844C135.6 20.1844 133.462 20.1361 133.462 20.8167ZM129.003 14.3861C130.231 14.3861 135.493 14.3861 135.493 14.3861V17.0762H111.668V7.90723C111.668 7.90723 109.331 8.29842 109.331 9.76139V19.0161V19.9539C109.331 20.6077 108.801 21.1382 108.147 21.1382H104.262C104.042 21.1382 103.838 21.0793 103.661 20.9721C103.656 20.9721 103.651 20.9667 103.651 20.9667C103.64 20.9614 103.629 20.9507 103.624 20.9453C103.602 20.9292 103.586 20.9185 103.57 20.9078C103.549 20.8917 103.527 20.881 103.511 20.8649C103.495 20.8542 103.49 20.8435 103.474 20.8328C103.436 20.8006 103.404 20.7685 103.372 20.731C103.361 20.7202 103.351 20.7095 103.34 20.6934C103.324 20.672 103.308 20.6506 103.292 20.6291C103.281 20.6131 103.27 20.597 103.259 20.5863C103.249 20.5648 103.233 20.5434 103.222 20.522C103.211 20.5005 103.201 20.4791 103.184 20.4523C103.174 20.4255 103.158 20.3934 103.147 20.3666C103.136 20.3398 103.125 20.313 103.12 20.2862C103.115 20.2701 103.109 20.254 103.109 20.2326C103.104 20.2004 103.099 20.1736 103.093 20.1415C103.088 20.1254 103.088 20.1093 103.088 20.0933C103.083 20.045 103.077 19.9968 103.077 19.9486V17.0494C103.077 16.1116 101.036 16.0473 101.036 16.0473V16.7225V20.806C101.036 22.06 102.054 23.1049 103.308 23.1049H104.069C104.085 23.1049 104.095 23.1103 104.112 23.1103H108.415C108.452 23.1103 108.479 23.1103 108.516 23.1049H109.385C110.639 23.1049 111.657 22.06 111.657 20.806V19.343C111.657 19.2948 111.662 19.2573 111.662 19.2037H137.835V12.4194H127.144C127.149 12.4194 127.782 14.3861 129.003 14.3861Z" fill="var(--fill-0, #164B7D)"/>
</g>
</svg>
