<svg preserveAspectRatio="none" width="100%" height="100%" overflow="visible" style="display: block;" viewBox="0 0 20 20" fill="none" xmlns="http://www.w3.org/2000/svg">
<g id="Group">
<path id="Vector" d="M19.9154 8.69566H11.3044H11.3044V0.0846484C10.8774 0.0290625 10.4421 0 10 0C9.55785 0 9.12262 0.0290625 8.69566 0.0846484V8.69559V8.69563H0.0846484C0.0290625 9.12262 0 9.55793 0 10C0 10.4421 0.0290625 10.8774 0.0846484 11.3043H8.69559H8.69563V19.9154C9.12262 19.9709 9.55785 20 10 20C10.4421 20 10.8774 19.971 11.3043 19.9154V11.3044V11.3044H19.9154C19.9709 10.8774 20 10.4421 20 10C20 9.55793 19.9709 9.12262 19.9154 8.69566V8.69566Z" fill="var(--fill-0, #D80027)"/>
<path id="Vector_2" d="M12.6086 12.6091L17.071 17.0714C17.2762 16.8663 17.472 16.6518 17.6588 16.4294L13.8384 12.609H12.6086V12.6091Z" fill="var(--fill-0, #D80027)"/>
<path id="Vector_3" d="M7.39126 12.609H7.39118L2.92887 17.0714C3.13403 17.2766 3.34852 17.4724 3.57087 17.6592L7.39126 13.8387V12.609Z" fill="var(--fill-0, #D80027)"/>
<path id="Vector_4" d="M7.39126 7.39133V7.39126L2.92892 2.92887C2.72368 3.13403 2.5279 3.34852 2.3411 3.57087L6.16153 7.3913H7.39126V7.39133Z" fill="var(--fill-0, #D80027)"/>
<path id="Vector_5" d="M12.6086 7.3915L17.071 2.92908C16.8659 2.72385 16.6514 2.52807 16.429 2.34131L12.6086 6.16174V7.3915Z" fill="var(--fill-0, #D80027)"/>
</g>
</svg>
