<svg preserveAspectRatio="none" width="100%" height="100%" overflow="visible" style="display: block;" viewBox="0 0 19 19" fill="none" xmlns="http://www.w3.org/2000/svg">
<path id="Vector" d="M8.1 0C12.5712 0 16.2 3.6288 16.2 8.1C16.2 12.5712 12.5712 16.2 8.1 16.2C3.6288 16.2 0 12.5712 0 8.1C0 3.6288 3.6288 0 8.1 0ZM8.1 14.4C11.5803 14.4 14.4 11.5803 14.4 8.1C14.4 4.6188 11.5803 1.8 8.1 1.8C4.6188 1.8 1.8 4.6188 1.8 8.1C1.8 11.5803 4.6188 14.4 8.1 14.4ZM15.7365 14.4639L18.2826 17.0091L17.0091 18.2826L14.4639 15.7365L15.7365 14.4639V14.4639Z" fill="var(--fill-0, black)" fill-opacity="0.6"/>
</svg>
