<svg width="530" height="1370" viewBox="0 0 530 1370" fill="none" xmlns="http://www.w3.org/2000/svg">
<path opacity="0.8" d="M1 1283.5L1 1369H89M1 1283.5H89M1 1283.5L1 1198M89 1283.5V1369M89 1283.5H177M89 1283.5L89 1198M89 1369H177M177 1283.5V1369M177 1283.5H265M177 1283.5V1198M177 1369H265M265 1283.5V1369M265 1283.5H353M265 1283.5V1198M265 1369H353M353 1283.5V1369M353 1283.5H441M353 1283.5V1198M353 1369H441M441 1283.5V1369M441 1283.5H529M441 1283.5V1198M441 1369H529V1283.5M529 1283.5V1198M1 1198H89M1 1198L1 1112.5M89 1198H177M89 1198V1112.5M177 1198H265M177 1198L177 1112.5M265 1198H353M265 1198V1112.5M353 1198H441M353 1198V1112.5M441 1198H529M441 1198V1112.5M529 1198V1112.5M1 1112.5H89M1 1112.5L1 1027M89 1112.5H177M89 1112.5V1027M177 1112.5H265M177 1112.5V1027M265 1112.5H353M265 1112.5V1027M353 1112.5H441M353 1112.5V1027M441 1112.5H529M441 1112.5V1027M529 1112.5V1027M1 1027H89M1 1027L1 941.5M89 1027H177M89 1027L89 941.5M177 1027H265M177 1027V941.5M265 1027H353M265 1027V941.5M353 1027H441M353 1027V941.5M441 1027H529M441 1027V941.5M529 1027V941.5M1 941.5H89M1 941.5L1 856M89 941.5H177M89 941.5V856M177 941.5H265M177 941.5V856M265 941.5H353M265 941.5L265 856M353 941.5H441M353 941.5L353 856M441 941.5H529M441 941.5L441 856M529 941.5V856M1 856H89M1 856L1 770.5M89 856H177M89 856L89 770.5M177 856H265M177 856V770.5M265 856H353M265 856V770.5M353 856H441M353 856V770.5M441 856H529M441 856V770.5M529 856V770.5M1 770.5H89M1 770.5L1 685M89 770.5H177M89 770.5V685M177 770.5H265M177 770.5V685M265 770.5H353M265 770.5V685M353 770.5H441M353 770.5V685M441 770.5H529M441 770.5V685M529 770.5V685M1 685H89M1 685L1 599.5M89 685H177M89 685V599.5M177 685H265M177 685L177 599.5M265 685H353M265 685V599.5M353 685H441M353 685V599.5M441 685H529M441 685V599.5M529 685V599.5M1 599.5H89M1 599.5L1 514M89 599.5H177M89 599.5L89 514M177 599.5H265M177 599.5V514M265 599.5H353M265 599.5V514M353 599.5H441M353 599.5V514M441 599.5H529M441 599.5V514M529 599.5V514M1 514H89M1 514L1 428.5M89 514H177M89 514V428.5M177 514H265M177 514V428.5M265 514H353M265 514V428.5M353 514H441M353 514V428.5M441 514H529M441 514V428.5M529 514L529 428.5M1 428.5H89M1 428.5L1 343M89 428.5H177M89 428.5V343M177 428.5H265M177 428.5V343M265 428.5H353M265 428.5V343M353 428.5H441M353 428.5V343M441 428.5H529M441 428.5V343M529 428.5V343M1 343H89M1 343L1 257.5M89 343H177M89 343L89 257.5M177 343H265M177 343V257.5M265 343H353M265 343V257.5M353 343H441M353 343V257.5M441 343H529M441 343V257.5M529 343V257.5M1 257.5H89M1 257.5L1 172M89 257.5H177M89 257.5V172M177 257.5H265M177 257.5L177 172M265 257.5H353M265 257.5V172M353 257.5H441M353 257.5V172M441 257.5H529M441 257.5V172M529 257.5V172M1 172H89M1 172L1 86.4999M89 172H177M89 172L89 86.4999M177 172H265M177 172V86.4999M265 172H353M265 172V86.4999M353 172H441M353 172V86.4999M441 172H529M441 172V86.4999M529 172V86.4999M1 86.4999H89M1 86.4999L1 0.999946H89M89 86.4999H177M89 86.4999V0.999946M177 86.4999H265M177 86.4999V0.999946M265 86.4999H353M265 86.4999V0.999946M353 86.4999H441M353 86.4999V0.999946M441 86.4999H529M441 86.4999V0.999946M529 86.4999V0.999946H441M89 0.999946H177M177 0.999946H265M265 0.999946H353M353 0.999946H441" stroke="url(#paint0_radial_3153_13003)" stroke-opacity="0.2"/>
<defs>
<radialGradient id="paint0_radial_3153_13003" cx="0" cy="0" r="1" gradientUnits="userSpaceOnUse" gradientTransform="translate(265 685) rotate(1.24046) scale(304.871 789.894)">
<stop stop-color="#164B7D"/>
<stop offset="1" stop-color="#164B7D" stop-opacity="0"/>
</radialGradient>
</defs>
</svg>
