<svg width="194" height="45" viewBox="0 0 194 45" fill="none" xmlns="http://www.w3.org/2000/svg">
<path d="M66.4897 21.2735C66.4897 20.0543 67.2212 19.3041 67.2212 19.2103C67.2212 18.5414 67.2712 18.2725 67.9027 17.7911C67.9027 16.8096 68.8405 15.5904 69.7595 15.0653C70.8786 14.4213 74.5986 14.3588 76.5867 12.4144C78.2122 10.8327 79.1 9.62602 80.3504 8.28184C83.5577 4.83703 84.6893 4.04928 86.5586 3.0427C89.2845 1.57349 93.4358 0.654441 99.4878 0.654441C102.964 0.654441 106.021 0.610677 108.559 0.660693C107.422 2.41125 106.553 3.91798 103.508 8.23808C99.7691 13.546 97.6809 16.8283 93.9798 17.5035C97.6809 19.3416 99.1564 20.0481 101.507 20.5045C103.12 20.8171 105.89 21.3047 110.785 20.2544C100.501 25.7249 88.4593 25.356 81.5696 23.1616C77.9371 21.9987 76.3616 21.3298 73.5858 20.3169C70.8599 19.3229 67.4526 19.698 66.4897 21.2735Z" fill="#164B7D"/>
<path d="M0.0307617 26.9631L1.44996 24.4935L9.05864 11.5269H1.80633C1.80633 11.5269 2.79414 9.23242 4.51344 9.23242H14.1665L12.9099 11.3644L5.23867 24.6748H10.2465C11.7658 24.6748 12.4097 26.9631 12.4097 26.9631H0.0307617Z" fill="#164B7D"/>
<path d="M33.2479 11.3956C33.2479 9.68882 35.9738 9.23242 35.9738 9.23242V21.974C35.9738 23.0993 35.8737 23.9621 35.6799 24.5623C35.4173 25.3563 34.9359 25.9878 34.2357 26.4692C33.5417 26.9506 32.6227 27.1881 31.4786 27.1881C30.1407 27.1881 29.1091 26.813 28.3901 26.0628C27.6711 25.3126 27.3022 24.2122 27.3022 22.7617L29.8843 22.4616C29.9156 23.2369 30.0281 23.7871 30.2282 24.1059C30.522 24.5998 30.9722 24.8374 31.5786 24.8374C32.1913 24.8374 32.6227 24.6623 32.8728 24.3185C33.1229 23.9684 33.2541 23.2431 33.2541 22.1428V11.3956H33.2479Z" fill="#164B7D"/>
<path d="M37.9932 26.9553V9.22461H48.0464C48.0464 9.22461 47.3086 11.5191 45.8832 11.5191H40.7315V16.727H44.8266V19.0152H40.7315V24.6608H45.5956C47.4587 24.6608 48.3027 26.949 48.3027 26.949H37.9932V26.9553Z" fill="#164B7D"/>
<path d="M49.8218 26.9615V11.3941C49.8218 9.67475 52.5601 9.22461 52.5601 9.22461V24.6733H57.1991C58.5558 24.6733 59.3686 26.9615 59.3686 26.9615H49.8218Z" fill="#164B7D"/>
<path d="M18.4867 21.5848L20.3186 12.6444L22.1879 21.5848H18.4867ZM21.7128 9.22461H19.1244L13.5352 26.9553H17.3739L18.0178 23.8668H22.6506L23.2883 26.9553H27.1332L21.7128 9.22461Z" fill="#164B7D"/>
<path d="M164.777 11.4128V26.9615H167.516V9.24337C167.51 9.24337 164.777 9.69351 164.777 11.4128ZM174.524 13.8073V15.6829C174.793 14.9514 177.256 14.495 177.256 14.495V12.6194C177.25 12.6194 174.524 12.9445 174.524 13.8073ZM174.512 17.396V22.6351C174.512 25.1859 172.924 24.8796 171.955 24.8796C170.992 24.8796 169.992 27.3804 169.992 27.3804C169.992 27.3804 177.25 28.3807 177.25 24.0168V15.6454C177.25 15.6454 174.512 16.083 174.512 17.396ZM155.706 24.2857V25.9737H158.2V23.5479C158.2 23.5479 155.706 23.4917 155.706 24.2857ZM150.504 16.7833C151.936 16.7833 158.075 16.7833 158.075 16.7833V19.9218H130.279V9.22461C130.279 9.22461 127.553 9.681 127.553 11.3878V22.185V23.2791C127.553 24.0418 126.934 24.6608 126.171 24.6608H121.639C121.382 24.6608 121.145 24.592 120.938 24.467C120.932 24.467 120.926 24.4607 120.926 24.4607C120.913 24.4545 120.901 24.442 120.895 24.4357C120.87 24.417 120.851 24.4044 120.832 24.3919C120.807 24.3732 120.782 24.3607 120.763 24.3419C120.745 24.3294 120.738 24.3169 120.72 24.3044C120.676 24.2669 120.638 24.2294 120.601 24.1856C120.588 24.1731 120.576 24.1606 120.563 24.1419C120.545 24.1169 120.526 24.0918 120.507 24.0668C120.495 24.0481 120.482 24.0293 120.47 24.0168C120.457 23.9918 120.438 23.9668 120.426 23.9418C120.413 23.9168 120.401 23.8918 120.382 23.8605C120.37 23.8293 120.351 23.7918 120.338 23.7605C120.326 23.7292 120.313 23.698 120.307 23.6667C120.301 23.648 120.295 23.6292 120.295 23.6042C120.288 23.5667 120.282 23.5354 120.276 23.4979C120.27 23.4792 120.27 23.4604 120.27 23.4416C120.263 23.3854 120.257 23.3291 120.257 23.2728V19.8905C120.257 18.7964 117.875 18.7214 117.875 18.7214V19.5091V24.2732C117.875 25.7361 119.063 26.9553 120.526 26.9553H121.414C121.432 26.9553 121.445 26.9615 121.464 26.9615H126.484C126.528 26.9615 126.559 26.9615 126.603 26.9553H127.616C129.079 26.9553 130.266 25.7361 130.266 24.2732V22.5664C130.266 22.5101 130.273 22.4663 130.273 22.4038H160.807V14.4888H148.335C148.341 14.4888 149.079 16.7833 150.504 16.7833Z" fill="#164B7D"/>
<path d="M0.920455 44V37.4545H1.92614V44H0.920455ZM1.43182 36.3636C1.2358 36.3636 1.06676 36.2969 0.924716 36.1634C0.785511 36.0298 0.715909 35.8693 0.715909 35.6818C0.715909 35.4943 0.785511 35.3338 0.924716 35.2003C1.06676 35.0668 1.2358 35 1.43182 35C1.62784 35 1.79545 35.0668 1.93466 35.2003C2.0767 35.3338 2.14773 35.4943 2.14773 35.6818C2.14773 35.8693 2.0767 36.0298 1.93466 36.1634C1.79545 36.2969 1.62784 36.3636 1.43182 36.3636ZM4.53379 40.0625V44H3.52811V37.4545H4.4997V38.4773H4.58493C4.73834 38.1449 4.97129 37.8778 5.28379 37.6761C5.59629 37.4716 5.9997 37.3693 6.49402 37.3693C6.9372 37.3693 7.32499 37.4602 7.65737 37.642C7.98976 37.821 8.24828 38.0938 8.43294 38.4602C8.6176 38.8239 8.70993 39.2841 8.70993 39.8409V44H7.70425V39.9091C7.70425 39.3949 7.57072 38.9943 7.30368 38.7074C7.03663 38.4176 6.67016 38.2727 6.20425 38.2727C5.88322 38.2727 5.59629 38.3423 5.34345 38.4815C5.09345 38.6207 4.89601 38.8239 4.75112 39.0909C4.60624 39.358 4.53379 39.6818 4.53379 40.0625ZM16.1017 44.1364C15.4881 44.1364 14.9597 43.9915 14.5165 43.7017C14.0733 43.4119 13.7324 43.0128 13.4938 42.5043C13.2551 41.9957 13.1358 41.4148 13.1358 40.7614C13.1358 40.0966 13.258 39.5099 13.5023 39.0014C13.7495 38.4901 14.0932 38.0909 14.5336 37.804C14.9767 37.5142 15.4938 37.3693 16.0847 37.3693C16.5449 37.3693 16.9597 37.4545 17.329 37.625C17.6983 37.7955 18.0009 38.0341 18.2367 38.3409C18.4725 38.6477 18.6188 39.0057 18.6756 39.4148H17.6699C17.5932 39.1165 17.4228 38.8523 17.1586 38.6222C16.8972 38.3892 16.5449 38.2727 16.1017 38.2727C15.7097 38.2727 15.3659 38.375 15.0705 38.5795C14.7779 38.7812 14.5492 39.0668 14.3844 39.4361C14.2225 39.8026 14.1415 40.233 14.1415 40.7273C14.1415 41.233 14.2211 41.6733 14.3801 42.0483C14.5421 42.4233 14.7693 42.7145 15.062 42.9219C15.3574 43.1293 15.704 43.233 16.1017 43.233C16.3631 43.233 16.6003 43.1875 16.8134 43.0966C17.0264 43.0057 17.2068 42.875 17.3546 42.7045C17.5023 42.5341 17.6074 42.3295 17.6699 42.0909H18.6756C18.6188 42.4773 18.4782 42.8253 18.2537 43.1349C18.0321 43.4418 17.7381 43.6861 17.3716 43.8679C17.008 44.0469 16.5847 44.1364 16.1017 44.1364ZM22.5649 44.1364C21.9739 44.1364 21.4555 43.9957 21.0095 43.7145C20.5663 43.4332 20.2197 43.0398 19.9697 42.5341C19.7225 42.0284 19.5989 41.4375 19.5989 40.7614C19.5989 40.0795 19.7225 39.4844 19.9697 38.9759C20.2197 38.4673 20.5663 38.0724 21.0095 37.7912C21.4555 37.5099 21.9739 37.3693 22.5649 37.3693C23.1558 37.3693 23.6728 37.5099 24.116 37.7912C24.562 38.0724 24.9086 38.4673 25.1558 38.9759C25.4058 39.4844 25.5308 40.0795 25.5308 40.7614C25.5308 41.4375 25.4058 42.0284 25.1558 42.5341C24.9086 43.0398 24.562 43.4332 24.116 43.7145C23.6728 43.9957 23.1558 44.1364 22.5649 44.1364ZM22.5649 43.233C23.0137 43.233 23.383 43.1179 23.6728 42.8878C23.9626 42.6577 24.1771 42.3551 24.3163 41.9801C24.4555 41.6051 24.5251 41.1989 24.5251 40.7614C24.5251 40.3239 24.4555 39.9162 24.3163 39.5384C24.1771 39.1605 23.9626 38.8551 23.6728 38.6222C23.383 38.3892 23.0137 38.2727 22.5649 38.2727C22.116 38.2727 21.7467 38.3892 21.4569 38.6222C21.1671 38.8551 20.9526 39.1605 20.8134 39.5384C20.6742 39.9162 20.6046 40.3239 20.6046 40.7614C20.6046 41.1989 20.6742 41.6051 20.8134 41.9801C20.9526 42.3551 21.1671 42.6577 21.4569 42.8878C21.7467 43.1179 22.116 43.233 22.5649 43.233ZM27.8316 35.2727V44H26.8259V35.2727H27.8316ZM30.4393 35.2727V44H29.4336V35.2727H30.4393ZM33.9674 44.1534C33.5526 44.1534 33.1762 44.0753 32.8381 43.919C32.5 43.7599 32.2316 43.5312 32.0327 43.233C31.8338 42.9318 31.7344 42.5682 31.7344 42.142C31.7344 41.767 31.8083 41.4631 31.956 41.2301C32.1037 40.9943 32.3012 40.8097 32.5483 40.6761C32.7955 40.5426 33.0682 40.4432 33.3665 40.3778C33.6677 40.3097 33.9702 40.2557 34.2742 40.2159C34.6719 40.1648 34.9944 40.1264 35.2415 40.1009C35.4915 40.0724 35.6733 40.0256 35.787 39.9602C35.9035 39.8949 35.9617 39.7812 35.9617 39.6193V39.5852C35.9617 39.1648 35.8466 38.8381 35.6165 38.6051C35.3892 38.3722 35.0441 38.2557 34.581 38.2557C34.1009 38.2557 33.7245 38.3608 33.4517 38.571C33.179 38.7812 32.9873 39.0057 32.8765 39.2443L31.9219 38.9034C32.0924 38.5057 32.3196 38.196 32.6037 37.9744C32.8907 37.75 33.2032 37.5937 33.5412 37.5057C33.8821 37.4148 34.2174 37.3693 34.5469 37.3693C34.7571 37.3693 34.9986 37.3949 35.2713 37.446C35.5469 37.4943 35.8125 37.5952 36.0682 37.7486C36.3267 37.902 36.5412 38.1335 36.7117 38.4432C36.8821 38.7528 36.9674 39.1676 36.9674 39.6875V44H35.9617V43.1136H35.9106C35.8424 43.2557 35.7287 43.4077 35.5696 43.5696C35.4106 43.7315 35.1989 43.8693 34.9347 43.983C34.6705 44.0966 34.3481 44.1534 33.9674 44.1534ZM34.1208 43.25C34.5185 43.25 34.8537 43.1719 35.1265 43.0156C35.402 42.8594 35.6094 42.6577 35.7486 42.4105C35.8907 42.1634 35.9617 41.9034 35.9617 41.6307V40.7102C35.9191 40.7614 35.8253 40.8082 35.6804 40.8509C35.5384 40.8906 35.3736 40.9261 35.1861 40.9574C35.0015 40.9858 34.8211 41.0114 34.6449 41.0341C34.4716 41.054 34.331 41.071 34.2231 41.0852C33.9617 41.1193 33.7174 41.1747 33.4901 41.2514C33.2657 41.3253 33.0838 41.4375 32.9446 41.5881C32.8083 41.7358 32.7401 41.9375 32.7401 42.1932C32.7401 42.5426 32.8694 42.8068 33.1279 42.9858C33.3892 43.1619 33.7202 43.25 34.1208 43.25ZM38.6993 44V35.2727H39.705V38.4943H39.7902C39.8641 38.3807 39.9664 38.2358 40.097 38.0597C40.2306 37.8807 40.4209 37.7216 40.6681 37.5824C40.9181 37.4403 41.2561 37.3693 41.6823 37.3693C42.2334 37.3693 42.7192 37.5071 43.1397 37.7827C43.5601 38.0582 43.8882 38.4489 44.124 38.9545C44.3598 39.4602 44.4777 40.0568 44.4777 40.7443C44.4777 41.4375 44.3598 42.0384 44.124 42.5469C43.8882 43.0526 43.5615 43.4446 43.1439 43.723C42.7263 43.9986 42.2448 44.1364 41.6993 44.1364C41.2789 44.1364 40.9422 44.0668 40.6894 43.9276C40.4365 43.7855 40.2419 43.625 40.1056 43.446C39.9692 43.2642 39.8641 43.1136 39.7902 42.9943H39.6709V44H38.6993ZM39.688 40.7273C39.688 41.2216 39.7604 41.6577 39.9053 42.0355C40.0502 42.4105 40.2618 42.7045 40.5402 42.9176C40.8186 43.1278 41.1595 43.233 41.563 43.233C41.9834 43.233 42.3343 43.1222 42.6155 42.9006C42.8996 42.6761 43.1127 42.375 43.2547 41.9972C43.3996 41.6165 43.472 41.1932 43.472 40.7273C43.472 40.267 43.401 39.8523 43.259 39.483C43.1198 39.1108 42.9081 38.8168 42.624 38.6009C42.3428 38.3821 41.9891 38.2727 41.563 38.2727C41.1539 38.2727 40.8101 38.3764 40.5317 38.5838C40.2533 38.7884 40.0431 39.0753 39.901 39.4446C39.759 39.8111 39.688 40.2386 39.688 40.7273ZM48.4352 44.1364C47.8443 44.1364 47.3258 43.9957 46.8798 43.7145C46.4366 43.4332 46.09 43.0398 45.84 42.5341C45.5928 42.0284 45.4693 41.4375 45.4693 40.7614C45.4693 40.0795 45.5928 39.4844 45.84 38.9759C46.09 38.4673 46.4366 38.0724 46.8798 37.7912C47.3258 37.5099 47.8443 37.3693 48.4352 37.3693C49.0261 37.3693 49.5431 37.5099 49.9863 37.7912C50.4323 38.0724 50.7789 38.4673 51.0261 38.9759C51.2761 39.4844 51.4011 40.0795 51.4011 40.7614C51.4011 41.4375 51.2761 42.0284 51.0261 42.5341C50.7789 43.0398 50.4323 43.4332 49.9863 43.7145C49.5431 43.9957 49.0261 44.1364 48.4352 44.1364ZM48.4352 43.233C48.884 43.233 49.2534 43.1179 49.5431 42.8878C49.8329 42.6577 50.0474 42.3551 50.1866 41.9801C50.3258 41.6051 50.3954 41.1989 50.3954 40.7614C50.3954 40.3239 50.3258 39.9162 50.1866 39.5384C50.0474 39.1605 49.8329 38.8551 49.5431 38.6222C49.2534 38.3892 48.884 38.2727 48.4352 38.2727C47.9863 38.2727 47.617 38.3892 47.3272 38.6222C47.0374 38.8551 46.823 39.1605 46.6838 39.5384C46.5445 39.9162 46.4749 40.3239 46.4749 40.7614C46.4749 41.1989 46.5445 41.6051 46.6838 41.9801C46.823 42.3551 47.0374 42.6577 47.3272 42.8878C47.617 43.1179 47.9863 43.233 48.4352 43.233ZM52.6962 44V37.4545H53.6678V38.4432H53.736C53.8553 38.1193 54.0712 37.8565 54.3837 37.6548C54.6962 37.4531 55.0485 37.3523 55.4406 37.3523C55.5144 37.3523 55.6067 37.3537 55.7175 37.3565C55.8283 37.3594 55.9121 37.3636 55.969 37.3693V38.392C55.9349 38.3835 55.8567 38.3707 55.7346 38.3537C55.6153 38.3338 55.4888 38.3239 55.3553 38.3239C55.0371 38.3239 54.7531 38.3906 54.5031 38.5241C54.2559 38.6548 54.0599 38.8366 53.915 39.0696C53.7729 39.2997 53.7019 39.5625 53.7019 39.858V44H52.6962ZM58.8472 44.1534C58.4324 44.1534 58.056 44.0753 57.718 43.919C57.3799 43.7599 57.1114 43.5312 56.9126 43.233C56.7137 42.9318 56.6143 42.5682 56.6143 42.142C56.6143 41.767 56.6881 41.4631 56.8359 41.2301C56.9836 40.9943 57.181 40.8097 57.4282 40.6761C57.6753 40.5426 57.9481 40.4432 58.2464 40.3778C58.5475 40.3097 58.8501 40.2557 59.154 40.2159C59.5518 40.1648 59.8742 40.1264 60.1214 40.1009C60.3714 40.0724 60.5532 40.0256 60.6668 39.9602C60.7833 39.8949 60.8415 39.7812 60.8415 39.6193V39.5852C60.8415 39.1648 60.7265 38.8381 60.4964 38.6051C60.2691 38.3722 59.9239 38.2557 59.4609 38.2557C58.9807 38.2557 58.6043 38.3608 58.3316 38.571C58.0589 38.7812 57.8671 39.0057 57.7563 39.2443L56.8018 38.9034C56.9722 38.5057 57.1995 38.196 57.4836 37.9744C57.7705 37.75 58.083 37.5937 58.4211 37.5057C58.762 37.4148 59.0972 37.3693 59.4268 37.3693C59.637 37.3693 59.8785 37.3949 60.1512 37.446C60.4268 37.4943 60.6924 37.5952 60.9481 37.7486C61.2066 37.902 61.4211 38.1335 61.5915 38.4432C61.762 38.7528 61.8472 39.1676 61.8472 39.6875V44H60.8415V43.1136H60.7904C60.7222 43.2557 60.6086 43.4077 60.4495 43.5696C60.2904 43.7315 60.0788 43.8693 59.8145 43.983C59.5503 44.0966 59.2279 44.1534 58.8472 44.1534ZM59.0006 43.25C59.3984 43.25 59.7336 43.1719 60.0063 43.0156C60.2819 42.8594 60.4893 42.6577 60.6285 42.4105C60.7705 42.1634 60.8415 41.9034 60.8415 41.6307V40.7102C60.7989 40.7614 60.7052 40.8082 60.5603 40.8509C60.4182 40.8906 60.2535 40.9261 60.066 40.9574C59.8813 40.9858 59.7009 41.0114 59.5248 41.0341C59.3515 41.054 59.2109 41.071 59.1029 41.0852C58.8415 41.1193 58.5972 41.1747 58.3699 41.2514C58.1455 41.3253 57.9637 41.4375 57.8245 41.5881C57.6881 41.7358 57.6199 41.9375 57.6199 42.1932C57.6199 42.5426 57.7492 42.8068 58.0077 42.9858C58.2691 43.1619 58.6001 43.25 59.0006 43.25ZM66.2894 37.4545V38.3068H62.8973V37.4545H66.2894ZM63.886 35.8864H64.8917V42.125C64.8917 42.4091 64.9329 42.6222 65.0152 42.7642C65.1005 42.9034 65.2084 42.9972 65.3391 43.0455C65.4726 43.0909 65.6133 43.1136 65.761 43.1136C65.8718 43.1136 65.9627 43.108 66.0337 43.0966C66.1047 43.0824 66.1615 43.071 66.2042 43.0625L66.4087 43.9659C66.3405 43.9915 66.2454 44.017 66.1232 44.0426C66.001 44.071 65.8462 44.0852 65.6587 44.0852C65.3746 44.0852 65.0962 44.0241 64.8235 43.902C64.5536 43.7798 64.3292 43.5938 64.1502 43.3438C63.974 43.0938 63.886 42.7784 63.886 42.3977V35.8864ZM67.5622 44V37.4545H68.5679V44H67.5622ZM68.0735 36.3636C67.8775 36.3636 67.7085 36.2969 67.5664 36.1634C67.4272 36.0298 67.3576 35.8693 67.3576 35.6818C67.3576 35.4943 67.4272 35.3338 67.5664 35.2003C67.7085 35.0668 67.8775 35 68.0735 35C68.2696 35 68.4372 35.0668 68.5764 35.2003C68.7184 35.3338 68.7894 35.4943 68.7894 35.6818C68.7894 35.8693 68.7184 36.0298 68.5764 36.1634C68.4372 36.2969 68.2696 36.3636 68.0735 36.3636ZM72.8289 44.1364C72.238 44.1364 71.7195 43.9957 71.2735 43.7145C70.8303 43.4332 70.4837 43.0398 70.2337 42.5341C69.9866 42.0284 69.863 41.4375 69.863 40.7614C69.863 40.0795 69.9866 39.4844 70.2337 38.9759C70.4837 38.4673 70.8303 38.0724 71.2735 37.7912C71.7195 37.5099 72.238 37.3693 72.8289 37.3693C73.4198 37.3693 73.9369 37.5099 74.3801 37.7912C74.8261 38.0724 75.1727 38.4673 75.4198 38.9759C75.6698 39.4844 75.7948 40.0795 75.7948 40.7614C75.7948 41.4375 75.6698 42.0284 75.4198 42.5341C75.1727 43.0398 74.8261 43.4332 74.3801 43.7145C73.9369 43.9957 73.4198 44.1364 72.8289 44.1364ZM72.8289 43.233C73.2778 43.233 73.6471 43.1179 73.9369 42.8878C74.2266 42.6577 74.4411 42.3551 74.5803 41.9801C74.7195 41.6051 74.7891 41.1989 74.7891 40.7614C74.7891 40.3239 74.7195 39.9162 74.5803 39.5384C74.4411 39.1605 74.2266 38.8551 73.9369 38.6222C73.6471 38.3892 73.2778 38.2727 72.8289 38.2727C72.3801 38.2727 72.0107 38.3892 71.721 38.6222C71.4312 38.8551 71.2167 39.1605 71.0775 39.5384C70.9383 39.9162 70.8687 40.3239 70.8687 40.7614C70.8687 41.1989 70.9383 41.6051 71.0775 41.9801C71.2167 42.3551 71.4312 42.6577 71.721 42.8878C72.0107 43.1179 72.3801 43.233 72.8289 43.233ZM78.0957 40.0625V44H77.09V37.4545H78.0616V38.4773H78.1468C78.3002 38.1449 78.5332 37.8778 78.8457 37.6761C79.1582 37.4716 79.5616 37.3693 80.0559 37.3693C80.4991 37.3693 80.8869 37.4602 81.2192 37.642C81.5516 37.821 81.8102 38.0938 81.9948 38.4602C82.1795 38.8239 82.2718 39.2841 82.2718 39.8409V44H81.2661V39.9091C81.2661 39.3949 81.1326 38.9943 80.8656 38.7074C80.5985 38.4176 80.232 38.2727 79.7661 38.2727C79.4451 38.2727 79.1582 38.3423 78.9053 38.4815C78.6553 38.6207 78.4579 38.8239 78.313 39.0909C78.1681 39.358 78.0957 39.6818 78.0957 40.0625ZM88.4875 44L86.4932 37.4545H87.55L88.9647 42.4659H89.0329L90.4307 37.4545H91.5045L92.8852 42.4489H92.9534L94.3682 37.4545H95.425L93.4307 44H92.442L91.0102 38.9716H90.9079L89.4761 44H88.4875ZM96.5145 44V37.4545H97.5202V44H96.5145ZM97.0259 36.3636C96.8299 36.3636 96.6608 36.2969 96.5188 36.1634C96.3796 36.0298 96.31 35.8693 96.31 35.6818C96.31 35.4943 96.3796 35.3338 96.5188 35.2003C96.6608 35.0668 96.8299 35 97.0259 35C97.2219 35 97.3895 35.0668 97.5287 35.2003C97.6708 35.3338 97.7418 35.4943 97.7418 35.6818C97.7418 35.8693 97.6708 36.0298 97.5287 36.1634C97.3895 36.2969 97.2219 36.3636 97.0259 36.3636ZM101.969 37.4545V38.3068H98.5767V37.4545H101.969ZM99.5654 35.8864H100.571V42.125C100.571 42.4091 100.612 42.6222 100.695 42.7642C100.78 42.9034 100.888 42.9972 101.018 43.0455C101.152 43.0909 101.293 43.1136 101.44 43.1136C101.551 43.1136 101.642 43.108 101.713 43.0966C101.784 43.0824 101.841 43.071 101.884 43.0625L102.088 43.9659C102.02 43.9915 101.925 44.017 101.803 44.0426C101.68 44.071 101.526 44.0852 101.338 44.0852C101.054 44.0852 100.776 44.0241 100.503 43.902C100.233 43.7798 100.009 43.5938 99.8296 43.3438C99.6534 43.0938 99.5654 42.7784 99.5654 42.3977V35.8864ZM104.388 40.0625V44H103.382V35.2727H104.388V38.4773H104.473C104.626 38.1392 104.857 37.8707 105.163 37.6719C105.473 37.4702 105.885 37.3693 106.399 37.3693C106.845 37.3693 107.236 37.4588 107.571 37.6378C107.906 37.8139 108.166 38.0852 108.351 38.4517C108.538 38.8153 108.632 39.2784 108.632 39.8409V44H107.626V39.9091C107.626 39.3892 107.492 38.9872 107.222 38.7031C106.955 38.4162 106.584 38.2727 106.109 38.2727C105.78 38.2727 105.484 38.3423 105.223 38.4815C104.965 38.6207 104.76 38.8239 104.609 39.0909C104.462 39.358 104.388 39.6818 104.388 40.0625Z" fill="#164B7D" fill-opacity="0.6"/>
<path d="M116.197 44H113.503V35.2727H116.316C117.162 35.2727 117.887 35.4474 118.489 35.7969C119.091 36.1435 119.553 36.642 119.874 37.2926C120.195 37.9403 120.356 38.7159 120.356 39.6193C120.356 40.5284 120.194 41.3111 119.87 41.9673C119.546 42.6207 119.074 43.1236 118.455 43.4759C117.836 43.8253 117.083 44 116.197 44ZM114.56 43.0625H116.128C116.85 43.0625 117.448 42.9233 117.922 42.6449C118.397 42.3665 118.751 41.9702 118.983 41.456C119.216 40.9418 119.333 40.3295 119.333 39.6193C119.333 38.9148 119.218 38.3082 118.988 37.7997C118.758 37.2884 118.414 36.8963 117.957 36.6236C117.499 36.348 116.93 36.2102 116.248 36.2102H114.56V43.0625ZM125.877 41.3239V37.4545H126.883V44H125.877V42.892H125.809C125.655 43.2244 125.417 43.5071 125.093 43.7401C124.769 43.9702 124.36 44.0852 123.866 44.0852C123.457 44.0852 123.093 43.9957 122.775 43.8168C122.457 43.6349 122.207 43.3622 122.025 42.9986C121.843 42.6321 121.752 42.1705 121.752 41.6136V37.4545H122.758V41.5455C122.758 42.0227 122.891 42.4034 123.158 42.6875C123.428 42.9716 123.772 43.1136 124.19 43.1136C124.44 43.1136 124.694 43.0497 124.952 42.9219C125.214 42.794 125.432 42.598 125.609 42.3338C125.788 42.0696 125.877 41.733 125.877 41.3239ZM128.621 44V35.2727H129.627V38.4943H129.712C129.786 38.3807 129.888 38.2358 130.019 38.0597C130.152 37.8807 130.343 37.7216 130.59 37.5824C130.84 37.4403 131.178 37.3693 131.604 37.3693C132.155 37.3693 132.641 37.5071 133.061 37.7827C133.482 38.0582 133.81 38.4489 134.046 38.9545C134.282 39.4602 134.399 40.0568 134.399 40.7443C134.399 41.4375 134.282 42.0384 134.046 42.5469C133.81 43.0526 133.483 43.4446 133.066 43.723C132.648 43.9986 132.166 44.1364 131.621 44.1364C131.201 44.1364 130.864 44.0668 130.611 43.9276C130.358 43.7855 130.164 43.625 130.027 43.446C129.891 43.2642 129.786 43.1136 129.712 42.9943H129.593V44H128.621ZM129.61 40.7273C129.61 41.2216 129.682 41.6577 129.827 42.0355C129.972 42.4105 130.184 42.7045 130.462 42.9176C130.74 43.1278 131.081 43.233 131.485 43.233C131.905 43.233 132.256 43.1222 132.537 42.9006C132.821 42.6761 133.034 42.375 133.176 41.9972C133.321 41.6165 133.394 41.1932 133.394 40.7273C133.394 40.267 133.323 39.8523 133.181 39.483C133.041 39.1108 132.83 38.8168 132.546 38.6009C132.265 38.3821 131.911 38.2727 131.485 38.2727C131.076 38.2727 130.732 38.3764 130.453 38.5838C130.175 38.7884 129.965 39.0753 129.823 39.4446C129.681 39.8111 129.61 40.2386 129.61 40.7273ZM137.624 44.1534C137.209 44.1534 136.833 44.0753 136.495 43.919C136.157 43.7599 135.888 43.5312 135.689 43.233C135.49 42.9318 135.391 42.5682 135.391 42.142C135.391 41.767 135.465 41.4631 135.613 41.2301C135.76 40.9943 135.958 40.8097 136.205 40.6761C136.452 40.5426 136.725 40.4432 137.023 40.3778C137.324 40.3097 137.627 40.2557 137.931 40.2159C138.328 40.1648 138.651 40.1264 138.898 40.1009C139.148 40.0724 139.33 40.0256 139.444 39.9602C139.56 39.8949 139.618 39.7812 139.618 39.6193V39.5852C139.618 39.1648 139.503 38.8381 139.273 38.6051C139.046 38.3722 138.701 38.2557 138.238 38.2557C137.757 38.2557 137.381 38.3608 137.108 38.571C136.836 38.7812 136.644 39.0057 136.533 39.2443L135.578 38.9034C135.749 38.5057 135.976 38.196 136.26 37.9744C136.547 37.75 136.86 37.5937 137.198 37.5057C137.539 37.4148 137.874 37.3693 138.203 37.3693C138.414 37.3693 138.655 37.3949 138.928 37.446C139.203 37.4943 139.469 37.5952 139.725 37.7486C139.983 37.902 140.198 38.1335 140.368 38.4432C140.539 38.7528 140.624 39.1676 140.624 39.6875V44H139.618V43.1136H139.567C139.499 43.2557 139.385 43.4077 139.226 43.5696C139.067 43.7315 138.855 43.8693 138.591 43.983C138.327 44.0966 138.005 44.1534 137.624 44.1534ZM137.777 43.25C138.175 43.25 138.51 43.1719 138.783 43.0156C139.059 42.8594 139.266 42.6577 139.405 42.4105C139.547 42.1634 139.618 41.9034 139.618 41.6307V40.7102C139.576 40.7614 139.482 40.8082 139.337 40.8509C139.195 40.8906 139.03 40.9261 138.843 40.9574C138.658 40.9858 138.478 41.0114 138.301 41.0341C138.128 41.054 137.988 41.071 137.88 41.0852C137.618 41.1193 137.374 41.1747 137.147 41.2514C136.922 41.3253 136.74 41.4375 136.601 41.5881C136.465 41.7358 136.397 41.9375 136.397 42.1932C136.397 42.5426 136.526 42.8068 136.784 42.9858C137.046 43.1619 137.377 43.25 137.777 43.25ZM142.22 44V37.4545H143.225V44H142.22ZM142.731 36.3636C142.535 36.3636 142.366 36.2969 142.224 36.1634C142.085 36.0298 142.015 35.8693 142.015 35.6818C142.015 35.4943 142.085 35.3338 142.224 35.2003C142.366 35.0668 142.535 35 142.731 35C142.927 35 143.095 35.0668 143.234 35.2003C143.376 35.3338 143.447 35.4943 143.447 35.6818C143.447 35.8693 143.376 36.0298 143.234 36.1634C143.095 36.2969 142.927 36.3636 142.731 36.3636ZM150.621 44.1364C150.008 44.1364 149.479 43.9915 149.036 43.7017C148.593 43.4119 148.252 43.0128 148.013 42.5043C147.775 41.9957 147.655 41.4148 147.655 40.7614C147.655 40.0966 147.778 39.5099 148.022 39.0014C148.269 38.4901 148.613 38.0909 149.053 37.804C149.496 37.5142 150.013 37.3693 150.604 37.3693C151.064 37.3693 151.479 37.4545 151.849 37.625C152.218 37.7955 152.52 38.0341 152.756 38.3409C152.992 38.6477 153.138 39.0057 153.195 39.4148H152.189C152.113 39.1165 151.942 38.8523 151.678 38.6222C151.417 38.3892 151.064 38.2727 150.621 38.2727C150.229 38.2727 149.885 38.375 149.59 38.5795C149.297 38.7812 149.069 39.0668 148.904 39.4361C148.742 39.8026 148.661 40.233 148.661 40.7273C148.661 41.233 148.741 41.6733 148.9 42.0483C149.062 42.4233 149.289 42.7145 149.581 42.9219C149.877 43.1293 150.224 43.233 150.621 43.233C150.883 43.233 151.12 43.1875 151.333 43.0966C151.546 43.0057 151.726 42.875 151.874 42.7045C152.022 42.5341 152.127 42.3295 152.189 42.0909H153.195C153.138 42.4773 152.998 42.8253 152.773 43.1349C152.552 43.4418 152.258 43.6861 151.891 43.8679C151.528 44.0469 151.104 44.1364 150.621 44.1364ZM158.55 41.3239V37.4545H159.556V44H158.55V42.892H158.482C158.329 43.2244 158.09 43.5071 157.766 43.7401C157.442 43.9702 157.033 44.0852 156.539 44.0852C156.13 44.0852 155.766 43.9957 155.448 43.8168C155.13 43.6349 154.88 43.3622 154.698 42.9986C154.516 42.6321 154.425 42.1705 154.425 41.6136V37.4545H155.431V41.5455C155.431 42.0227 155.564 42.4034 155.832 42.6875C156.101 42.9716 156.445 43.1136 156.863 43.1136C157.113 43.1136 157.367 43.0497 157.626 42.9219C157.887 42.794 158.106 42.598 158.282 42.3338C158.461 42.0696 158.55 41.733 158.55 41.3239ZM165.794 38.9205L164.891 39.1761C164.834 39.0256 164.75 38.8793 164.639 38.7372C164.532 38.5923 164.384 38.473 164.196 38.3793C164.009 38.2855 163.769 38.2386 163.476 38.2386C163.076 38.2386 162.742 38.331 162.475 38.5156C162.211 38.6974 162.078 38.929 162.078 39.2102C162.078 39.4602 162.169 39.6577 162.351 39.8026C162.533 39.9474 162.817 40.0682 163.203 40.1648L164.175 40.4034C164.76 40.5455 165.196 40.7628 165.483 41.0554C165.77 41.3452 165.914 41.7187 165.914 42.1761C165.914 42.5511 165.806 42.8864 165.59 43.1818C165.377 43.4773 165.078 43.7102 164.695 43.8807C164.311 44.0511 163.865 44.1364 163.357 44.1364C162.689 44.1364 162.137 43.9915 161.699 43.7017C161.262 43.4119 160.985 42.9886 160.868 42.4318L161.823 42.1932C161.914 42.5455 162.086 42.8097 162.338 42.9858C162.594 43.1619 162.928 43.25 163.34 43.25C163.809 43.25 164.181 43.1506 164.456 42.9517C164.735 42.75 164.874 42.5085 164.874 42.2273C164.874 42 164.794 41.8097 164.635 41.6562C164.476 41.5 164.232 41.3835 163.902 41.3068L162.811 41.0511C162.212 40.9091 161.772 40.6889 161.49 40.3906C161.212 40.0895 161.073 39.7131 161.073 39.2614C161.073 38.892 161.176 38.5653 161.384 38.2812C161.594 37.9972 161.88 37.7741 162.24 37.6122C162.604 37.4503 163.016 37.3693 163.476 37.3693C164.124 37.3693 164.632 37.5114 165.002 37.7955C165.374 38.0795 165.638 38.4545 165.794 38.9205ZM170.034 37.4545V38.3068H166.642V37.4545H170.034ZM167.631 35.8864H168.636V42.125C168.636 42.4091 168.678 42.6222 168.76 42.7642C168.845 42.9034 168.953 42.9972 169.084 43.0455C169.217 43.0909 169.358 43.1136 169.506 43.1136C169.616 43.1136 169.707 43.108 169.778 43.0966C169.849 43.0824 169.906 43.071 169.949 43.0625L170.153 43.9659C170.085 43.9915 169.99 44.017 169.868 44.0426C169.746 44.071 169.591 44.0852 169.403 44.0852C169.119 44.0852 168.841 44.0241 168.568 43.902C168.298 43.7798 168.074 43.5938 167.895 43.3438C167.719 43.0938 167.631 42.7784 167.631 42.3977V35.8864ZM173.896 44.1364C173.305 44.1364 172.786 43.9957 172.34 43.7145C171.897 43.4332 171.55 43.0398 171.3 42.5341C171.053 42.0284 170.93 41.4375 170.93 40.7614C170.93 40.0795 171.053 39.4844 171.3 38.9759C171.55 38.4673 171.897 38.0724 172.34 37.7912C172.786 37.5099 173.305 37.3693 173.896 37.3693C174.487 37.3693 175.004 37.5099 175.447 37.7912C175.893 38.0724 176.239 38.4673 176.487 38.9759C176.737 39.4844 176.862 40.0795 176.862 40.7614C176.862 41.4375 176.737 42.0284 176.487 42.5341C176.239 43.0398 175.893 43.4332 175.447 43.7145C175.004 43.9957 174.487 44.1364 173.896 44.1364ZM173.896 43.233C174.345 43.233 174.714 43.1179 175.004 42.8878C175.293 42.6577 175.508 42.3551 175.647 41.9801C175.786 41.6051 175.856 41.1989 175.856 40.7614C175.856 40.3239 175.786 39.9162 175.647 39.5384C175.508 39.1605 175.293 38.8551 175.004 38.6222C174.714 38.3892 174.345 38.2727 173.896 38.2727C173.447 38.2727 173.077 38.3892 172.788 38.6222C172.498 38.8551 172.283 39.1605 172.144 39.5384C172.005 39.9162 171.935 40.3239 171.935 40.7614C171.935 41.1989 172.005 41.6051 172.144 41.9801C172.283 42.3551 172.498 42.6577 172.788 42.8878C173.077 43.1179 173.447 43.233 173.896 43.233ZM178.157 44V37.4545H179.128V38.4773H179.214C179.35 38.1278 179.57 37.8565 179.874 37.6634C180.178 37.4673 180.543 37.3693 180.969 37.3693C181.401 37.3693 181.76 37.4673 182.047 37.6634C182.337 37.8565 182.563 38.1278 182.725 38.4773H182.793C182.961 38.1392 183.212 37.8707 183.547 37.6719C183.883 37.4702 184.285 37.3693 184.753 37.3693C185.339 37.3693 185.817 37.5526 186.189 37.919C186.562 38.2827 186.748 38.8494 186.748 39.6193V44H185.742V39.6193C185.742 39.1364 185.61 38.7912 185.346 38.5838C185.081 38.3764 184.77 38.2727 184.412 38.2727C183.952 38.2727 183.596 38.4119 183.343 38.6903C183.09 38.9659 182.964 39.3153 182.964 39.7386V44H181.941V39.517C181.941 39.1449 181.82 38.8452 181.579 38.6179C181.337 38.3878 181.026 38.2727 180.645 38.2727C180.384 38.2727 180.14 38.3423 179.912 38.4815C179.688 38.6207 179.506 38.8139 179.367 39.0611C179.231 39.3054 179.162 39.5881 179.162 39.9091V44H178.157ZM192.983 38.9205L192.079 39.1761C192.023 39.0256 191.939 38.8793 191.828 38.7372C191.72 38.5923 191.572 38.473 191.385 38.3793C191.197 38.2855 190.957 38.2386 190.665 38.2386C190.264 38.2386 189.93 38.331 189.663 38.5156C189.399 38.6974 189.267 38.929 189.267 39.2102C189.267 39.4602 189.358 39.6577 189.54 39.8026C189.721 39.9474 190.005 40.0682 190.392 40.1648L191.363 40.4034C191.949 40.5455 192.385 40.7628 192.672 41.0554C192.959 41.3452 193.102 41.7187 193.102 42.1761C193.102 42.5511 192.994 42.8864 192.778 43.1818C192.565 43.4773 192.267 43.7102 191.883 43.8807C191.5 44.0511 191.054 44.1364 190.545 44.1364C189.878 44.1364 189.325 43.9915 188.888 43.7017C188.45 43.4119 188.173 42.9886 188.057 42.4318L189.011 42.1932C189.102 42.5455 189.274 42.8097 189.527 42.9858C189.782 43.1619 190.116 43.25 190.528 43.25C190.997 43.25 191.369 43.1506 191.645 42.9517C191.923 42.75 192.062 42.5085 192.062 42.2273C192.062 42 191.983 41.8097 191.824 41.6562C191.665 41.5 191.42 41.3835 191.091 41.3068L190 41.0511C189.4 40.9091 188.96 40.6889 188.679 40.3906C188.4 40.0895 188.261 39.7131 188.261 39.2614C188.261 38.892 188.365 38.5653 188.572 38.2812C188.782 37.9972 189.068 37.7741 189.429 37.6122C189.792 37.4503 190.204 37.3693 190.665 37.3693C191.312 37.3693 191.821 37.5114 192.19 37.7955C192.562 38.0795 192.827 38.4545 192.983 38.9205Z" fill="#164B7D"/>
</svg>
