<svg preserveAspectRatio="none" width="100%" height="100%" overflow="visible" style="display: block;" viewBox="0 0 18 18" fill="none" xmlns="http://www.w3.org/2000/svg">
<path id="Vector" d="M13.4444 17H4.55556M13.4444 17H14.1582C15.152 17 15.6489 17 16.0284 16.8062C16.3636 16.6356 16.6356 16.3636 16.8062 16.0293C17 15.6498 17 15.152 17 14.1582V6.52889C17 6.12889 17 5.92889 16.9573 5.73867C16.9194 5.56897 16.8568 5.40575 16.7716 5.25422C16.6773 5.08533 16.544 4.93867 16.2827 4.648L13.8338 1.92622C13.5307 1.59022 13.3769 1.41956 13.1929 1.29689C13.0269 1.18679 12.8436 1.10536 12.6507 1.056C12.4338 1 12.2 1 11.7333 1H3.84444C2.84889 1 2.35111 1 1.97067 1.19378C1.63617 1.36422 1.36422 1.63617 1.19378 1.97067C1 2.35111 1 2.84889 1 3.84444V14.1556C1 15.1511 1 15.6489 1.19378 16.0284C1.36444 16.3636 1.63556 16.6356 1.97067 16.8062C2.35022 17 2.848 17 3.84178 17H4.55556M13.4444 17V13.6196C13.4444 12.6258 13.4444 12.128 13.2507 11.7484C13.08 11.4138 12.8077 11.1418 12.4729 10.9716C12.0933 10.7778 11.5956 10.7778 10.6 10.7778H7.4C6.40444 10.7778 5.90667 10.7778 5.52622 10.9716C5.19173 11.142 4.91977 11.4139 4.74933 11.7484C4.55556 12.1289 4.55556 12.6267 4.55556 13.6222V17M11.6667 4.55556H6.33333" stroke="url(#paint0_radial_3512_11683)" stroke-width="1.5" stroke-linecap="round" stroke-linejoin="round"/>
<defs>
<radialGradient id="paint0_radial_3512_11683" cx="0" cy="0" r="1" gradientUnits="userSpaceOnUse" gradientTransform="translate(11 15.9091) rotate(-98.9017) scale(15.2749)">
<stop offset="0.0388845" stop-color="#5192E2"/>
<stop offset="1" stop-color="#164B7D"/>
</radialGradient>
</defs>
</svg>
