<svg preserveAspectRatio="none" width="100%" height="100%" overflow="visible" style="display: block;" viewBox="0 0 74 7" fill="none" xmlns="http://www.w3.org/2000/svg">
<g id="*******">
<path d="M2.53409 6.54545L2.64205 4.14773L0.619318 5.44886L0 4.36932L2.14773 3.27273L0 2.17614L0.619318 1.09659L2.64205 2.39773L2.53409 0H3.76705L3.65909 2.39773L5.68182 1.09659L6.30114 2.17614L4.15341 3.27273L6.30114 4.36932L5.68182 5.44886L3.65909 4.14773L3.76705 6.54545H2.53409Z" fill="var(--fill-0, #141414)" fill-opacity="0.6"/>
<path d="M13.7578 6.54545L13.8658 4.14773L11.8431 5.44886L11.2238 4.36932L13.3715 3.27273L11.2238 2.17614L11.8431 1.09659L13.8658 2.39773L13.7578 0H14.9908L14.8828 2.39773L16.9056 1.09659L17.5249 2.17614L15.3772 3.27273L17.5249 4.36932L16.9056 5.44886L14.8828 4.14773L14.9908 6.54545H13.7578Z" fill="var(--fill-0, #141414)" fill-opacity="0.6"/>
<path d="M24.9816 6.54545L25.0895 4.14773L23.0668 5.44886L22.4475 4.36932L24.5952 3.27273L22.4475 2.17614L23.0668 1.09659L25.0895 2.39773L24.9816 0H26.2145L26.1066 2.39773L28.1293 1.09659L28.7486 2.17614L26.6009 3.27273L28.7486 4.36932L28.1293 5.44886L26.1066 4.14773L26.2145 6.54545H24.9816Z" fill="var(--fill-0, #141414)" fill-opacity="0.6"/>
<path d="M36.2053 6.54545L36.3133 4.14773L34.2906 5.44886L33.6712 4.36932L35.819 3.27273L33.6712 2.17614L34.2906 1.09659L36.3133 2.39773L36.2053 0H37.4383L37.3303 2.39773L39.3531 1.09659L39.9724 2.17614L37.8247 3.27273L39.9724 4.36932L39.3531 5.44886L37.3303 4.14773L37.4383 6.54545H36.2053Z" fill="var(--fill-0, #141414)" fill-opacity="0.6"/>
<path d="M47.4291 6.54545L47.537 4.14773L45.5143 5.44886L44.895 4.36932L47.0427 3.27273L44.895 2.17614L45.5143 1.09659L47.537 2.39773L47.4291 0H48.662L48.5541 2.39773L50.5768 1.09659L51.1961 2.17614L49.0484 3.27273L51.1961 4.36932L50.5768 5.44886L48.5541 4.14773L48.662 6.54545H47.4291Z" fill="var(--fill-0, #141414)" fill-opacity="0.6"/>
<path d="M58.6528 6.54545L58.7608 4.14773L56.7381 5.44886L56.1188 4.36932L58.2665 3.27273L56.1188 2.17614L56.7381 1.09659L58.7608 2.39773L58.6528 0H59.8858L59.7778 2.39773L61.8006 1.09659L62.4199 2.17614L60.2722 3.27273L62.4199 4.36932L61.8006 5.44886L59.7778 4.14773L59.8858 6.54545H58.6528Z" fill="var(--fill-0, #141414)" fill-opacity="0.6"/>
<path d="M69.8766 6.54545L69.9845 4.14773L67.9618 5.44886L67.3425 4.36932L69.4902 3.27273L67.3425 2.17614L67.9618 1.09659L69.9845 2.39773L69.8766 0H71.1095L71.0016 2.39773L73.0243 1.09659L73.6436 2.17614L71.4959 3.27273L73.6436 4.36932L73.0243 5.44886L71.0016 4.14773L71.1095 6.54545H69.8766Z" fill="var(--fill-0, #141414)" fill-opacity="0.6"/>
</g>
</svg>
