<svg preserveAspectRatio="none" width="100%" height="100%" overflow="visible" style="display: block;" viewBox="0 0 13 13" fill="none" xmlns="http://www.w3.org/2000/svg">
<path id="Vector" d="M5.03092 0.0914053C4.15495 -0.192163 3.20268 0.202274 2.78377 1.02221L2.28016 2.00794C2.22032 2.12507 2.12507 2.22032 2.00794 2.28016L1.02221 2.78377C0.202274 3.20268 -0.192163 4.15495 0.0914053 5.03092L0.432318 6.08405C0.472824 6.20917 0.472824 6.34392 0.432318 6.46905L0.0914053 7.52217C-0.192163 8.39817 0.202274 9.35042 1.02221 9.76936L2.00794 10.2729C2.12507 10.3328 2.22032 10.428 2.28016 10.5452L2.78377 11.5309C3.20268 12.3509 4.15495 12.7453 5.03092 12.4617L6.08405 12.1208C6.20917 12.0803 6.34392 12.0803 6.46905 12.1208L7.52217 12.4617C8.39817 12.7453 9.35042 12.3509 9.76936 11.5309L10.2729 10.5452C10.3328 10.428 10.428 10.3328 10.5452 10.2729L11.5309 9.76936C12.3509 9.35042 12.7453 8.39817 12.4617 7.52217L12.1208 6.46905C12.0803 6.34392 12.0803 6.20917 12.1208 6.08405L12.4617 5.03092C12.7453 4.15495 12.3509 3.20268 11.5309 2.78377L10.5452 2.28016C10.428 2.22032 10.3328 2.12507 10.2729 2.00794L9.76936 1.02221C9.35042 0.202274 8.39817 -0.192163 7.52217 0.0914053L6.46905 0.432318C6.34392 0.472818 6.20917 0.472824 6.08405 0.432318L5.03092 0.0914053ZM3.00141 6.12486L3.88529 5.24092L5.65305 7.00874L9.18861 3.4732L10.0725 4.35709L5.65305 8.77649L3.00141 6.12486Z" fill="var(--fill-0, #1F60B0)"/>
</svg>
