<svg width="18" height="18" viewBox="0 0 18 18" fill="none" xmlns="http://www.w3.org/2000/svg">
<path opacity="0.8" d="M9.30039 17.8004C9.79745 17.8004 10.2004 17.3974 10.2004 16.9004C10.2004 16.4033 9.79745 16.0004 9.30039 16.0004V16.9004V17.8004ZM1.94179 15.8962L2.56652 15.2483L2.5665 15.2483L1.94179 15.8962ZM0.900391 5.70039L0.0696217 5.35424C0.0239202 5.46392 0.000390649 5.58157 0.000390649 5.70039H0.900391ZM16.9004 5.70039H17.8004C17.8004 5.58157 17.7769 5.46393 17.7312 5.35425L16.9004 5.70039ZM16.0004 7.70039C16.0004 8.19745 16.4033 8.60039 16.9004 8.60039C17.3974 8.60039 17.8004 8.19745 17.8004 7.70039H16.9004H16.0004ZM11.7004 14.656L11.1035 15.3296L11.1035 15.3296L11.7004 14.656ZM13.3575 16.6584L12.589 17.1268L12.5891 17.1269L13.3575 16.6584ZM14.0433 16.6584L14.7966 17.1508L14.7967 17.1507L14.0433 16.6584ZM15.7004 14.656L16.2973 15.3296L16.2973 15.3296L15.7004 14.656ZM13.7004 11.2004C13.2033 11.2004 12.8004 11.6033 12.8004 12.1004C12.8004 12.5974 13.2033 13.0004 13.7004 13.0004V12.1004V11.2004ZM13.7076 13.0004C14.2046 13.0004 14.6076 12.5974 14.6076 12.1004C14.6076 11.6033 14.2046 11.2004 13.7076 11.2004V12.1004V13.0004ZM1.66962 3.85424L2.50039 4.20039L2.50039 4.20039L1.66962 3.85424ZM16.1312 3.85424L16.962 3.5081L16.9619 3.50806L16.1312 3.85424ZM8.00039 5.70039C8.00039 6.19745 8.40333 6.60039 8.90039 6.60039C9.39745 6.60039 9.80039 6.19745 9.80039 5.70039H8.90039H8.00039ZM9.80039 0.900391C9.80039 0.403334 9.39745 0.000390649 8.90039 0.000390649C8.40333 0.000390649 8.00039 0.403334 8.00039 0.900391H8.90039H9.80039ZM7.30039 8.00039C6.80333 8.00039 6.40039 8.40333 6.40039 8.90039C6.40039 9.39745 6.80333 9.80039 7.30039 9.80039V8.90039V8.00039ZM8.90039 9.80039C9.39745 9.80039 9.80039 9.39745 9.80039 8.90039C9.80039 8.40333 9.39745 8.00039 8.90039 8.00039V8.90039V9.80039ZM9.30039 16.9004V16.0004H8.01151V16.9004V17.8004H9.30039V16.9004ZM8.01151 16.9004V16.0004C6.31084 16.0004 5.12269 15.9986 4.22581 15.8823C3.35156 15.769 2.89103 15.5612 2.56652 15.2483L1.94179 15.8962L1.31706 16.544C2.03395 17.2353 2.93217 17.5297 3.99438 17.6674C5.03395 17.8022 6.35996 17.8004 8.01151 17.8004V16.9004ZM1.94179 15.8962L2.5665 15.2483C2.24659 14.9398 2.03735 14.5088 1.92194 13.681C1.80244 12.824 1.80039 11.6859 1.80039 10.0433H0.900391H0.000390649C0.000390649 11.6332 -0.0016621 12.9194 0.139188 13.9296C0.28413 14.9692 0.59559 15.8483 1.31708 16.544L1.94179 15.8962ZM0.900391 10.0433H1.80039V5.70039H0.900391H0.000390649V10.0433H0.900391ZM0.900391 5.70039V6.60039H16.9004V5.70039V4.80039H0.900391V5.70039ZM16.9004 5.70039H16.0004V7.70039H16.9004H17.8004V5.70039H16.9004ZM13.7004 8.90039V8.00039C11.4276 8.00039 9.60039 9.85898 9.60039 12.1326H10.5004H11.4004C11.4004 10.836 12.4386 9.80039 13.7004 9.80039V8.90039ZM10.5004 12.1326H9.60039C9.60039 13.445 10.1377 14.4737 11.1035 15.3296L11.7004 14.656L12.2973 13.9824C11.6631 13.4204 11.4004 12.8619 11.4004 12.1326H10.5004ZM11.7004 14.656L11.1035 15.3296C11.595 15.7651 12.2217 16.5243 12.589 17.1268L13.3575 16.6584L14.126 16.1899C13.6731 15.4471 12.9337 14.5463 12.2973 13.9824L11.7004 14.656ZM13.3575 16.6584L12.5891 17.1269C12.7697 17.4231 13.1313 17.8004 13.6951 17.8004C14.2487 17.8004 14.611 17.4348 14.7966 17.1508L14.0433 16.6584L13.2899 16.166C13.2647 16.2046 13.3824 16.0004 13.6951 16.0004C14.0179 16.0004 14.142 16.2163 14.1259 16.1899L13.3575 16.6584ZM14.0433 16.6584L14.7967 17.1507C15.2045 16.5266 15.8164 15.7557 16.2973 15.3296L15.7004 14.656L15.1035 13.9824C14.4566 14.5556 13.7438 15.4714 13.2899 16.1661L14.0433 16.6584ZM15.7004 14.656L16.2973 15.3296C17.2631 14.4737 17.8004 13.445 17.8004 12.1326H16.9004H16.0004C16.0004 12.8619 15.7377 13.4204 15.1035 13.9824L15.7004 14.656ZM16.9004 12.1326H17.8004C17.8004 9.85898 15.9732 8.00039 13.7004 8.00039V8.90039V9.80039C14.9621 9.80039 16.0004 10.836 16.0004 12.1326H16.9004ZM13.7004 12.1004V13.0004H13.7076V12.1004V11.2004H13.7004V12.1004ZM0.900391 5.70039L1.73116 6.04655L2.50039 4.20039L1.66962 3.85424L0.838854 3.50808L0.0696217 5.35424L0.900391 5.70039ZM1.66962 3.85424L2.50039 4.20039C2.80621 3.46642 3.00912 2.98264 3.20483 2.62702C3.38993 2.29068 3.52932 2.145 3.66834 2.05231L3.16911 1.30347L2.66988 0.554627C2.20428 0.865026 1.89222 1.27883 1.62787 1.75915C1.37414 2.2202 1.12961 2.81026 0.838853 3.50809L1.66962 3.85424ZM3.16911 1.30347L3.66834 2.05231C3.80736 1.95964 3.99545 1.887 4.37711 1.8455C4.78065 1.80162 5.30526 1.80039 6.10039 1.80039V0.900391V0.000390649C5.34442 0.000390649 4.7057 -0.000839692 4.18253 0.0560498C3.63748 0.115318 3.13548 0.244225 2.66988 0.554627L3.16911 1.30347ZM6.10039 0.900391V1.80039H11.7004V0.900391V0.000390649H6.10039V0.900391ZM11.7004 0.900391V1.80039C12.4955 1.80039 13.0201 1.80162 13.4237 1.8455C13.8053 1.887 13.9934 1.95963 14.1325 2.05232L14.6317 1.30347L15.1309 0.554618C14.6653 0.244228 14.1633 0.115319 13.6183 0.05605C13.0951 -0.000839725 12.4564 0.000390649 11.7004 0.000390649V0.900391ZM14.6317 1.30347L14.1325 2.05232C14.2715 2.145 14.4108 2.29067 14.5959 2.62702C14.7917 2.98265 14.9946 3.46643 15.3004 4.20042L16.1312 3.85424L16.9619 3.50806C16.6712 2.81025 16.4266 2.22019 16.1729 1.75916C15.9086 1.27884 15.5965 0.865024 15.1309 0.554618L14.6317 1.30347ZM16.1312 3.85424L15.3004 4.20038L16.0696 6.04653L16.9004 5.70039L17.7312 5.35425L16.962 3.5081L16.1312 3.85424ZM8.90039 5.70039H9.80039V0.900391H8.90039H8.00039V5.70039H8.90039ZM7.30039 8.90039V9.80039H8.90039V8.90039V8.00039H7.30039V8.90039Z" fill="#164B7D"/>
</svg>
