<svg width="19" height="21" viewBox="0 0 19 21" fill="none" xmlns="http://www.w3.org/2000/svg">
<path opacity="0.8" d="M7.90039 10.9004C5.13897 10.9004 2.90039 8.66179 2.90039 5.90039C2.90039 3.13897 5.13897 0.900391 7.90039 0.900391C10.6618 0.900391 12.9004 3.13897 12.9004 5.90039C12.9004 8.66179 10.6618 10.9004 7.90039 10.9004ZM7.90039 10.9004C4.0344 10.9004 0.900391 14.0344 0.900391 17.9004M7.90039 10.9004C9.17539 10.9004 10.3708 11.2413 11.4004 11.8369M17.5891 12.8343L16.9665 12.2117C16.5514 11.7966 15.8784 11.7966 15.4633 12.2117L12.1145 15.5605C11.6694 16.0056 11.366 16.5726 11.2425 17.1899L10.9004 18.9004L12.6109 18.5583C13.2282 18.4348 13.7952 18.1314 14.2403 17.6863L17.5891 14.3375C18.0042 13.9224 18.0042 13.2494 17.5891 12.8343Z" stroke="#525866" stroke-width="1.8"/>
</svg>
