<svg width="18" height="18" viewBox="0 0 18 18" fill="none" xmlns="http://www.w3.org/2000/svg">
<path d="M4.68986 13.1109V9.7425M8.90039 13.1109V4.68986M13.1109 13.1109V8.05829M0.900391 8.90039C0.900391 5.12916 0.900391 3.24354 2.07196 2.07196C3.24354 0.900391 5.12916 0.900391 8.90039 0.900391C12.6716 0.900391 14.5572 0.900391 15.7289 2.07196C16.9004 3.24354 16.9004 5.12916 16.9004 8.90039C16.9004 12.6716 16.9004 14.5572 15.7289 15.7289C14.5572 16.9004 12.6716 16.9004 8.90039 16.9004C5.12916 16.9004 3.24354 16.9004 2.07196 15.7289C0.900391 14.5572 0.900391 12.6716 0.900391 8.90039Z" stroke="#164B7D" stroke-width="1.8" stroke-linecap="round"/>
</svg>
