<svg width="17" height="18" viewBox="0 0 17 18" fill="none" xmlns="http://www.w3.org/2000/svg">
<path opacity="0.8" d="M2.4 4.10039H0M2.4 8.90039H0M2.4 13.7004H0M12.4 4.90039H9.2M10.8 8.10039H9.2M5.6 16.9004V0.900391M16 10.5004V7.30039C16 4.2834 16 2.77491 15.0627 1.83765C14.1255 0.900391 12.617 0.900391 9.6 0.900391H8C4.98301 0.900391 3.47452 0.900391 2.53726 1.83765C1.6 2.77491 1.6 4.2834 1.6 7.30039V10.5004C1.6 13.5174 1.6 15.0259 2.53726 15.9631C3.47452 16.9004 4.98301 16.9004 8 16.9004H9.6C12.617 16.9004 14.1255 16.9004 15.0627 15.9631C16 15.0259 16 13.5174 16 10.5004Z" stroke="#525866" stroke-width="1.8"/>
</svg>
