<svg width="16" height="18" viewBox="0 0 16 18" fill="none" xmlns="http://www.w3.org/2000/svg">
<g opacity="0.8">
<path d="M9.15775 16.394C8.82054 16.7188 8.36971 16.9004 7.90052 16.9004C7.43134 16.9004 6.98058 16.7188 6.6433 16.394C3.55469 13.4012 -0.58442 10.0579 1.4341 5.20412C2.52549 2.57972 5.14533 0.900391 7.90052 0.900391C10.6557 0.900391 13.2756 2.57972 14.367 5.20412C16.3829 10.0518 12.254 13.4115 9.15775 16.394Z" stroke="#164B7D" stroke-width="1.8"/>
<path d="M10.6216 8.10039C10.6216 9.64679 9.40296 10.9004 7.89967 10.9004C6.39638 10.9004 5.17773 9.64679 5.17773 8.10039C5.17773 6.55399 6.39638 5.30039 7.89967 5.30039C9.40296 5.30039 10.6216 6.55399 10.6216 8.10039Z" stroke="#164B7D" stroke-width="1.8"/>
</g>
</svg>
