<svg width="18" height="18" viewBox="0 0 18 18" fill="none" xmlns="http://www.w3.org/2000/svg">
<path opacity="0.8" d="M9.4 17.9C9.89706 17.9 10.3 17.4971 10.3 17C10.3 16.5029 9.89706 16.1 9.4 16.1V17V17.9ZM2.0414 15.9958L2.66613 15.3479L2.66611 15.3479L2.0414 15.9958ZM1 5.8L0.169231 5.45385C0.12353 5.56353 0.1 5.68118 0.1 5.8H1ZM17 5.8H17.9C17.9 5.68118 17.8765 5.56354 17.8308 5.45386L17 5.8ZM16.1 7.8C16.1 8.29706 16.5029 8.7 17 8.7C17.4971 8.7 17.9 8.29706 17.9 7.8H17H16.1ZM11.8 14.7556L11.2031 15.4292L11.2031 15.4292L11.8 14.7556ZM13.4571 16.758L12.6886 17.2265L12.6887 17.2265L13.4571 16.758ZM14.1429 16.758L14.8962 17.2504L14.8963 17.2503L14.1429 16.758ZM15.8 14.7556L16.3969 15.4292L16.3969 15.4292L15.8 14.7556ZM13.8 11.3C13.3029 11.3 12.9 11.7029 12.9 12.2C12.9 12.6971 13.3029 13.1 13.8 13.1V12.2V11.3ZM13.8072 13.1C14.3043 13.1 14.7072 12.6971 14.7072 12.2C14.7072 11.7029 14.3043 11.3 13.8072 11.3V12.2V13.1ZM1.76923 3.95385L2.6 4.3L2.6 4.3L1.76923 3.95385ZM16.2308 3.95385L17.0616 3.60771L17.0616 3.60766L16.2308 3.95385ZM8.1 5.8C8.1 6.29706 8.50294 6.7 9 6.7C9.49706 6.7 9.9 6.29706 9.9 5.8H9H8.1ZM9.9 1C9.9 0.502944 9.49706 0.1 9 0.1C8.50294 0.1 8.1 0.502944 8.1 1H9H9.9ZM7.4 8.1C6.90294 8.1 6.5 8.50294 6.5 9C6.5 9.49706 6.90294 9.9 7.4 9.9V9V8.1ZM9 9.9C9.49706 9.9 9.9 9.49706 9.9 9C9.9 8.50294 9.49706 8.1 9 8.1V9V9.9ZM9.4 17V16.1H8.11112V17V17.9H9.4V17ZM8.11112 17V16.1C6.41045 16.1 5.2223 16.0982 4.32542 15.9819C3.45117 15.8686 2.99064 15.6608 2.66613 15.3479L2.0414 15.9958L1.41667 16.6436C2.13356 17.3349 3.03178 17.6293 4.09399 17.767C5.13356 17.9018 6.45957 17.9 8.11112 17.9V17ZM2.0414 15.9958L2.66611 15.3479C2.3462 15.0394 2.13696 14.6084 2.02155 13.7807C1.90205 12.9236 1.9 11.7855 1.9 10.1429H1H0.1C0.1 11.7328 0.0979473 13.019 0.238797 14.0292C0.38374 15.0688 0.695199 15.9479 1.41669 16.6436L2.0414 15.9958ZM1 10.1429H1.9V5.8H1H0.1V10.1429H1ZM1 5.8V6.7H17V5.8V4.9H1V5.8ZM17 5.8H16.1V7.8H17H17.9V5.8H17ZM13.8 9V8.1C11.5272 8.1 9.7 9.95858 9.7 12.2322H10.6H11.5C11.5 10.9357 12.5383 9.9 13.8 9.9V9ZM10.6 12.2322H9.7C9.7 13.5446 10.2373 14.5733 11.2031 15.4292L11.8 14.7556L12.3969 14.082C11.7627 13.52 11.5 12.9615 11.5 12.2322H10.6ZM11.8 14.7556L11.2031 15.4292C11.6946 15.8647 12.3213 16.6239 12.6886 17.2265L13.4571 16.758L14.2256 16.2895C13.7727 15.5467 13.0333 14.6459 12.3969 14.082L11.8 14.7556ZM13.4571 16.758L12.6887 17.2265C12.8693 17.5227 13.2309 17.9 13.7947 17.9C14.3483 17.9 14.7106 17.5344 14.8962 17.2504L14.1429 16.758L13.3895 16.2656C13.3643 16.3042 13.482 16.1 13.7947 16.1C14.1175 16.1 14.2417 16.3159 14.2255 16.2895L13.4571 16.758ZM14.1429 16.758L14.8963 17.2503C15.3041 16.6263 15.916 15.8553 16.3969 15.4292L15.8 14.7556L15.2031 14.082C14.5562 14.6553 13.8434 15.571 13.3895 16.2657L14.1429 16.758ZM15.8 14.7556L16.3969 15.4292C17.3627 14.5733 17.9 13.5446 17.9 12.2322H17H16.1C16.1 12.9615 15.8373 13.52 15.2031 14.082L15.8 14.7556ZM17 12.2322H17.9C17.9 9.95858 16.0728 8.1 13.8 8.1V9V9.9C15.0617 9.9 16.1 10.9357 16.1 12.2322H17ZM13.8 12.2V13.1H13.8072V12.2V11.3H13.8V12.2ZM1 5.8L1.83077 6.14615L2.6 4.3L1.76923 3.95385L0.938463 3.60769L0.169231 5.45385L1 5.8ZM1.76923 3.95385L2.6 4.3C2.90582 3.56603 3.10873 3.08225 3.30444 2.72663C3.48954 2.39029 3.62893 2.2446 3.76795 2.15192L3.26872 1.40308L2.76949 0.654236C2.30389 0.964635 1.99183 1.37843 1.72748 1.85876C1.47375 2.31981 1.22922 2.90987 0.938462 3.6077L1.76923 3.95385ZM3.26872 1.40308L3.76795 2.15192C3.90697 2.05925 4.09506 1.98661 4.47672 1.94511C4.88026 1.90123 5.40487 1.9 6.2 1.9V1V0.1C5.44403 0.1 4.80531 0.0987697 4.28214 0.155659C3.73708 0.214928 3.23509 0.343835 2.76949 0.654236L3.26872 1.40308ZM6.2 1V1.9H11.8V1V0.1H6.2V1ZM11.8 1V1.9C12.5951 1.9 13.1197 1.90123 13.5233 1.94511C13.9049 1.98661 14.093 2.05924 14.2321 2.15193L14.7313 1.40308L15.2305 0.654227C14.7649 0.343837 14.2629 0.214929 13.7179 0.155659C13.1947 0.0987697 12.556 0.1 11.8 0.1V1ZM14.7313 1.40308L14.2321 2.15193C14.3711 2.24461 14.5105 2.39028 14.6956 2.72663C14.8913 3.08226 15.0942 3.56604 15.4 4.30003L16.2308 3.95385L17.0616 3.60766C16.7708 2.90986 16.5262 2.3198 16.2725 1.85877C16.0082 1.37845 15.6961 0.964633 15.2305 0.654227L14.7313 1.40308ZM16.2308 3.95385L15.4 4.29999L16.1692 6.14614L17 5.8L17.8308 5.45386L17.0616 3.60771L16.2308 3.95385ZM9 5.8H9.9V1H9H8.1V5.8H9ZM7.4 9V9.9H9V9V8.1H7.4V9Z" fill="#164B7D"/>
</svg>
