<svg width="22" height="18" viewBox="0 0 22 18" fill="none" xmlns="http://www.w3.org/2000/svg">
<path d="M1.58789 3.35294L8.09426 7.0395C10.4929 8.39859 11.5064 8.39859 13.9051 7.0395L20.4114 3.35294M1.60273 10.3888C1.66426 13.2741 1.69502 14.7166 2.75962 15.7853C3.8242 16.8539 5.30585 16.8911 8.26914 16.9656C10.0955 17.0115 11.9038 17.0115 13.7302 16.9656C16.6935 16.8911 18.1751 16.8539 19.2397 15.7853C20.3043 14.7166 20.3351 13.2741 20.3965 10.3888C20.4164 9.46108 20.4164 8.53892 20.3965 7.6112C20.3351 4.72599 20.3043 3.28338 19.2397 2.21474C18.1751 1.1461 16.6935 1.10888 13.7302 1.03442C11.9038 0.988528 10.0955 0.988528 8.26913 1.03441C5.30585 1.10886 3.8242 1.14608 2.75961 2.21473C1.69502 3.28337 1.66426 4.72598 1.60272 7.6112C1.58294 8.53892 1.58295 9.46108 1.60273 10.3888Z" stroke="#164B7D" stroke-opacity="0.6" stroke-width="1.5" stroke-linecap="round" stroke-linejoin="round"/>
</svg>
