<svg width="18" height="18" viewBox="0 0 18 18" fill="none" xmlns="http://www.w3.org/2000/svg">
<path d="M1 11.1053V7.73684C1 4.56106 1 2.97318 1.98659 1.98659C2.97318 1 4.56106 1 7.73684 1H10.2632C13.4389 1 15.0269 1 16.0134 1.98659C17 2.97318 17 4.56106 17 7.73684V11.1053M11.5263 11.1053C11.5263 11.1053 9.66568 13.6315 9 13.6315C8.33423 13.6316 6.47368 11.1052 6.47368 11.1052M9 13.2105V7.73684M10.6842 17H7.31579C4.54739 17 3.16318 17 2.23152 16.2354C2.06096 16.0954 1.90457 15.939 1.7646 15.7685C1 14.8368 1 13.4526 1 10.6842C1 7.91579 1 6.5316 1.7646 5.59994C1.90457 5.42938 2.06096 5.27299 2.23152 5.13302C3.16318 4.36842 4.54739 4.36842 7.31579 4.36842H10.6842C13.4526 4.36842 14.8368 4.36842 15.7685 5.13302C15.939 5.27299 16.0954 5.42938 16.2354 5.59994C17 6.5316 17 7.91579 17 10.6842C17 13.4526 17 14.8368 16.2354 15.7685C16.0954 15.939 15.939 16.0954 15.7685 16.2354C14.8368 17 13.4526 17 10.6842 17Z" stroke="#164B7D" stroke-width="1.5" stroke-linecap="round" stroke-linejoin="round"/>
</svg>
