<svg width="20" height="20" viewBox="0 0 20 20" fill="none" xmlns="http://www.w3.org/2000/svg">
<path d="M10.001 3.75C13.7673 3.75 16.9046 6.43807 17.6035 10C16.9053 13.5618 13.7674 16.25 10.001 16.25C6.23421 16.25 3.09595 13.5615 2.39746 9.99902C3.09595 6.43757 6.23477 3.75 10.001 3.75ZM10.001 4.25684C8.35907 4.25684 6.7657 4.81391 5.48145 5.83691C4.19732 6.8599 3.29777 8.28844 2.93066 9.88867L2.90527 10L2.93066 10.1113C3.29643 11.7129 4.19521 13.1427 5.47949 14.167C6.68357 15.1273 8.15991 15.6778 9.69336 15.7432L10.001 15.75C11.6438 15.7496 13.2381 15.1913 14.5225 14.167C15.8067 13.1427 16.7055 11.7129 17.0713 10.1113L17.0967 10L17.0713 9.88867C16.7042 8.28845 15.8046 6.8599 14.5205 5.83691C13.2363 4.81392 11.6429 4.25684 10.001 4.25684ZM10.001 7.125C10.7635 7.125 11.495 7.42763 12.0342 7.9668C12.5733 8.50596 12.876 9.2375 12.876 10C12.876 10.7625 12.5733 11.494 12.0342 12.0332C11.495 12.5724 10.7635 12.875 10.001 12.875C9.23848 12.875 8.50694 12.5724 7.96777 12.0332C7.42861 11.494 7.12598 10.7625 7.12598 10C7.12598 9.2375 7.42861 8.50596 7.96777 7.9668C8.50694 7.42763 9.23848 7.125 10.001 7.125ZM10.001 7.625C9.37109 7.625 8.76669 7.87492 8.32129 8.32031C7.87589 8.76571 7.62598 9.37011 7.62598 10C7.62598 10.6299 7.87589 11.2343 8.32129 11.6797C8.76669 12.1251 9.37109 12.375 10.001 12.375C10.6309 12.375 11.2353 12.1251 11.6807 11.6797C12.1261 11.2343 12.376 10.6299 12.376 10C12.376 9.37011 12.1261 8.76571 11.6807 8.32031C11.2353 7.87492 10.6309 7.625 10.001 7.625Z" stroke="#525866"/>
</svg>
