<svg width="40" height="40" viewBox="0 0 40 40" fill="none" xmlns="http://www.w3.org/2000/svg">
<g filter="url(#filter0_d_2067_11247)">
<path d="M21.3147 25.7997C21.1667 25.4423 21.1667 24.9894 21.1667 24.0833C21.1667 23.1773 21.1667 22.7243 21.3147 22.367C21.512 21.8905 21.8905 21.512 22.367 21.3147C22.7243 21.1667 23.1773 21.1667 24.0833 21.1667C24.9894 21.1667 25.4423 21.1667 25.7997 21.3147C26.2761 21.512 26.6547 21.8905 26.852 22.367C27 22.7243 27 23.1773 27 24.0833C27 24.9894 27 25.4423 26.852 25.7997C26.6547 26.2761 26.2761 26.6547 25.7997 26.852C25.4423 27 24.9894 27 24.0833 27C23.1773 27 22.7243 27 22.367 26.852C21.8905 26.6547 21.512 26.2761 21.3147 25.7997Z" stroke="white" stroke-width="1.5" stroke-linecap="square" stroke-linejoin="round"/>
<path d="M21.3147 17.633C21.1667 17.2757 21.1667 16.8227 21.1667 15.9167C21.1667 15.0107 21.1667 14.5577 21.3147 14.2003C21.512 13.7239 21.8905 13.3454 22.367 13.148C22.7243 13 23.1773 13 24.0833 13C24.9894 13 25.4423 13 25.7997 13.148C26.2761 13.3454 26.6547 13.7239 26.852 14.2003C27 14.5577 27 15.0107 27 15.9167C27 16.8227 27 17.2757 26.852 17.633C26.6547 18.1094 26.2761 18.488 25.7997 18.6853C25.4423 18.8333 24.9894 18.8333 24.0833 18.8333C23.1773 18.8333 22.7243 18.8333 22.367 18.6853C21.8905 18.488 21.512 18.1094 21.3147 17.633Z" stroke="white" stroke-width="1.5" stroke-linecap="square" stroke-linejoin="round"/>
<path d="M13.148 25.7997C13 25.4423 13 24.9894 13 24.0833C13 23.1773 13 22.7243 13.148 22.367C13.3454 21.8905 13.7239 21.512 14.2003 21.3147C14.5577 21.1667 15.0107 21.1667 15.9167 21.1667C16.8227 21.1667 17.2757 21.1667 17.633 21.3147C18.1094 21.512 18.488 21.8905 18.6853 22.367C18.8333 22.7243 18.8333 23.1773 18.8333 24.0833C18.8333 24.9894 18.8333 25.4423 18.6853 25.7997C18.488 26.2761 18.1094 26.6547 17.633 26.852C17.2757 27 16.8227 27 15.9167 27C15.0107 27 14.5577 27 14.2003 26.852C13.7239 26.6547 13.3454 26.2761 13.148 25.7997Z" stroke="white" stroke-width="1.5" stroke-linecap="square" stroke-linejoin="round"/>
<path d="M13.148 17.633C13 17.2757 13 16.8227 13 15.9167C13 15.0107 13 14.5577 13.148 14.2003C13.3454 13.7239 13.7239 13.3454 14.2003 13.148C14.5577 13 15.0107 13 15.9167 13C16.8227 13 17.2757 13 17.633 13.148C18.1094 13.3454 18.488 13.7239 18.6853 14.2003C18.8333 14.5577 18.8333 15.0107 18.8333 15.9167C18.8333 16.8227 18.8333 17.2757 18.6853 17.633C18.488 18.1094 18.1094 18.488 17.633 18.6853C17.2757 18.8333 16.8227 18.8333 15.9167 18.8333C15.0107 18.8333 14.5577 18.8333 14.2003 18.6853C13.7239 18.488 13.3454 18.1094 13.148 17.633Z" stroke="white" stroke-width="1.5" stroke-linecap="square" stroke-linejoin="round"/>
</g>
<defs>
<filter id="filter0_d_2067_11247" x="-4" y="-4" width="48" height="48" filterUnits="userSpaceOnUse" color-interpolation-filters="sRGB">
<feFlood flood-opacity="0" result="BackgroundImageFix"/>
<feColorMatrix in="SourceAlpha" type="matrix" values="0 0 0 0 0 0 0 0 0 0 0 0 0 0 0 0 0 0 127 0" result="hardAlpha"/>
<feOffset/>
<feGaussianBlur stdDeviation="2"/>
<feComposite in2="hardAlpha" operator="out"/>
<feColorMatrix type="matrix" values="0 0 0 0 0 0 0 0 0 0 0 0 0 0 0 0 0 0 0.08 0"/>
<feBlend mode="normal" in2="BackgroundImageFix" result="effect1_dropShadow_2067_11247"/>
<feBlend mode="normal" in="SourceGraphic" in2="effect1_dropShadow_2067_11247" result="shape"/>
</filter>
</defs>
</svg>
