<svg width="24" height="24" viewBox="0 0 24 24" fill="none" xmlns="http://www.w3.org/2000/svg">
<path d="M7.78947 16.2105V12.8421M12 16.2105V7.78947M16.2105 16.2105V11.1579M4 12C4 8.22877 4 6.34315 5.17157 5.17157C6.34315 4 8.22877 4 12 4C15.7712 4 17.6568 4 18.8285 5.17157C20 6.34315 20 8.22877 20 12C20 15.7712 20 17.6568 18.8285 18.8285C17.6568 20 15.7712 20 12 20C8.22877 20 6.34315 20 5.17157 18.8285C4 17.6568 4 15.7712 4 12Z" stroke="#164B7D" stroke-width="1.8" stroke-linecap="round"/>
</svg>
