<svg preserveAspectRatio="none" width="100%" height="100%" overflow="visible" style="display: block;" viewBox="0 0 24 24" fill="none" xmlns="http://www.w3.org/2000/svg">
<g id="Menu Icon">
<path id="Vector" d="M6.4 7.2H4M6.4 12H4M6.4 16.8H4M16.4 8H13.2M14.8 11.2H13.2M9.6 20V4M20 13.6V10.4C20 7.38301 20 5.87452 19.0627 4.93726C18.1255 4 16.617 4 13.6 4H12C8.98301 4 7.47452 4 6.53726 4.93726C5.6 5.87452 5.6 7.38301 5.6 10.4V13.6C5.6 16.617 5.6 18.1255 6.53726 19.0627C7.47452 20 8.98301 20 12 20H13.6C16.617 20 18.1255 20 19.0627 19.0627C20 18.1255 20 16.617 20 13.6Z" stroke="var(--stroke-0, #525866)" stroke-width="1.8" stroke-linecap="round"/>
</g>
</svg>
