<svg width="20" height="20" viewBox="0 0 20 20" fill="none" xmlns="http://www.w3.org/2000/svg">
<path d="M7.5 12.5C5.65905 12.5 4.16667 11.0076 4.16667 9.16667C4.16667 7.32572 5.65905 5.83333 7.5 5.83333C9.34092 5.83333 10.8333 7.32572 10.8333 9.16667C10.8333 11.0076 9.34092 12.5 7.5 12.5ZM7.5 12.5C10.2614 12.5 12.5 14.7386 12.5 17.5M7.5 12.5C4.73857 12.5 2.5 14.7386 2.5 17.5M9.19883 6.29811C9.17758 6.14623 9.16667 5.99106 9.16667 5.83333C9.16667 3.99238 10.6591 2.5 12.5 2.5C14.3409 2.5 15.8333 3.99238 15.8333 5.83333C15.8333 7.67428 14.3409 9.16667 12.5 9.16667M12.5 9.16667C11.8795 9.16667 11.2987 8.99717 10.8012 8.70192M12.5 9.16667C15.2614 9.16667 17.5 11.4052 17.5 14.1667" stroke="#525866" stroke-width="1.25" stroke-linecap="round" stroke-linejoin="round"/>
</svg>
