<svg width="16" height="18" viewBox="0 0 16 18" fill="none" xmlns="http://www.w3.org/2000/svg">
<path d="M9.25736 16.4936C8.92015 16.8184 8.46932 17 8.00013 17C7.53095 17 7.08019 16.8184 6.74291 16.4936C3.6543 13.5008 -0.484811 10.1575 1.53371 5.30373C2.6251 2.67933 5.24494 1 8.00013 1C10.7554 1 13.3752 2.67933 14.4666 5.30373C16.4826 10.1514 12.3536 13.5111 9.25736 16.4936Z" stroke="#525866" stroke-width="1.8"/>
<path d="M10.7212 8.2C10.7212 9.7464 9.50257 11 7.99928 11C6.49599 11 5.27734 9.7464 5.27734 8.2C5.27734 6.6536 6.49599 5.4 7.99928 5.4C9.50257 5.4 10.7212 6.6536 10.7212 8.2Z" stroke="#525866" stroke-width="1.8"/>
</svg>
